{"title":"Aashiqui 2 DVDRIP Music Videos XVID AC3 5.1 waquaschaser007","uid":8814696,"size":217684284,"categoryP":"video","categoryS":"music_videos","magnet":"?xt=urn:btih:49e37d8e92288ae51ea50f9909e944a23982c325&amp;dn=Aashiqui+2+DVDRIP+Music+Videos+XVID+AC3+5.1+waquaschaser007&amp;tr=udp%3A%2F%2Ftracker.openbittorrent.com%3A80&amp;tr=udp%3A%2F%2Fopen.demonii.com%3A1337&amp;tr=udp%3A%2F%2Ftracker.coppersurfer.tk%3A6969&amp;tr=udp%3A%2F%2Fexodus.desync.com%3A6969","seeders":0,"leechers":0,"uploader":"waquaschaser007","files":5,"time":1376550189,"description":"ID : 0\nFormat : MPEG-4 Visual\nFormat profile : Advanced Simple@L5\nFormat settings, BVOP : 2\nFormat settings, QPel : No\nFormat settings, GMC : No warppoints\nFormat settings, Matrix : Default (MPEG)\nCodec ID : XVID\nCodec ID/Hint : XviD\nDuration : 3mn 53s\nBit rate : 2 276 Kbps\nWidth : 704 pixels\nHeight : 272 pixels\nDisplay aspect ratio : 2.588\nFrame rate : 25.000 fps\nColor space : YUV\nChroma subsampling : 4:2:0\nBit depth : 8 bits\nScan type : Progressive\nCompression mode : Lossy\nBits/(Pixel*Frame) : 0.475\nStream size : 63.4 MiB (83%)\nWriting library : XviD 1.2.1 (UTC 2008-12-04)\n\nAudio\nID : 1\nFormat : AC-3\nFormat/Info : Audio Coding 3\nMode extension : CM (complete main)\nFormat settings, Endianness : Big\nCodec ID : 2000\nDuration : 3mn 53s\nSource duration : 3mn 53s\nBit rate mode : Constant\nBit rate : 448 Kbps\nChannel(s) : 6 channels\nChannel positions : Front: L C R, Side: L R, LFE\nSampling rate : 48.0 KHz\nBit depth : 16 bits\nCompression mode : Lossy\nDelay relative to video : 32ms\nStream size : 12.5 MiB (16%)\nAlignment : Split accross interleaves\nInterleave, duration : 32 ms (0.80 video frame)","torrent":{"xt":"urn:btih:49e37d8e92288ae51ea50f9909e944a23982c325","amp;dn":"Aashiqui+2+DVDRIP+Music+Videos+XVID+AC3+5.1+waquaschaser007","amp;tr":["udp%3A%2F%2Ftracker.openbittorrent.com%3A80","udp%3A%2F%2Fopen.demonii.com%3A1337","udp%3A%2F%2Ftracker.coppersurfer.tk%3A6969","udp%3A%2F%2Fexodus.desync.com%3A6969"],"infoHash":"49e37d8e92288ae51ea50f9909e944a23982c325","infoHashBuffer":{"type":"Buffer","data":[73,227,125,142,146,40,138,229,30,165,15,153,9,233,68,162,57,130,195,37]},"announce":[],"urlList":[]}}